PathFileType	4	(X/Y/Z)	Kaydara	
DataRate	CameraRate	NumFrames	NumMarkers	Units	OrigDataRate	OrigDataStartFrame	OrigNumFrames	
60.00	60.00	4	74	mm	60.00	731	134	
Frame#	Time	Z_lasi			Z_rasi			Z_rpsi			Z_lpsi			Z_fneck			Z_bneck			Z_fhead			Z_lhead			Z_rshld			Z_relbtop			Z_relbext			Z_relblow			Z_rwrext			Z_rwrtop			Z_rwrlow			Z_lshld			Z_lelbext			Z_lelblow			Z_lelbtop			Z_lwrext			Z_lwrtop			Z_lwrlow			Z_rtopleg			Z_rkneefr			Z_rkneebk			Z_rkneeis			Z_lkneefr			Z_lknssbk			Z_lkneeis			Z_rankfr			Z_rankis			Z_rankbk			Z_lankfr			Z_lankbk			Z_lankis			Z_rhead			Z_ltopleg			N_rpsi			N_lpsi			N_fneck			N_bneck			N_fhead			N_rhead			N_lhead			N_rshld			N_relbtop			N_relbext			N_relblow			N_rwrext			N_rwrtop			N_rwrlow			N_lshld			N_lelbext			N_lelblow			N_lelbtop			N_lwrext			N_lwrtop			N_lwrlow			N_rtopleg			N_ltopleg			N_rkneefr			N_rkneebk			N_rkneeis			N_lkneefr			N_lknssbk			N_lkneeis			N_rankfr			N_rankis			N_rankbk			N_lankfr			N_lankbk			N_lankis			N_lasi			N_rasi			
		X1	Y1	Z1	X2	Y2	Z2	X3	Y3	Z3	X4	Y4	Z4	X5	Y5	Z5	X6	Y6	Z6	X7	Y7	Z7	X8	Y8	Z8	X9	Y9	Z9	X10	Y10	Z10	X11	Y11	Z11	X12	Y12	Z12	X13	Y13	Z13	X14	Y14	Z14	X15	Y15	Z15	X16	Y16	Z16	X17	Y17	Z17	X18	Y18	Z18	X19	Y19	Z19	X20	Y20	Z20	X21	Y21	Z21	X22	Y22	Z22	X23	Y23	Z23	X24	Y24	Z24	X25	Y25	Z25	X26	Y26	Z26	X27	Y27	Z27	X28	Y28	Z28	X29	Y29	Z29	X30	Y30	Z30	X31	Y31	Z31	X32	Y32	Z32	X33	Y33	Z33	X34	Y34	Z34	X35	Y35	Z35	X36	Y36	Z36	X37	Y37	Z37	X38	Y38	Z38	X39	Y39	Z39	X40	Y40	Z40	X41	Y41	Z41	X42	Y42	Z42	X43	Y43	Z43	X44	Y44	Z44	X45	Y45	Z45	X46	Y46	Z46	X47	Y47	Z47	X48	Y48	Z48	X49	Y49	Z49	X50	Y50	Z50	X51	Y51	Z51	X52	Y52	Z52	X53	Y53	Z53	X54	Y54	Z54	X55	Y55	Z55	X56	Y56	Z56	X57	Y57	Z57	X58	Y58	Z58	X59	Y59	Z59	X60	Y60	Z60	X61	Y61	Z61	X62	Y62	Z62	X63	Y63	Z63	X64	Y64	Z64	X65	Y65	Z65	X66	Y66	Z66	X67	Y67	Z67	X68	Y68	Z68	X69	Y69	Z69	X70	Y70	Z70	X71	Y71	Z71	X72	Y72	Z72	X73	Y73	Z73	X74	Y74	Z74	

101	12.167	-1007.98386	963.50983	778.42194	-854.28398	976.51299	963.02170	-1026.41342	1029.02306	1060.75012	-1149.99695	1020.75333	909.74037	-935.07919	1442.20261	831.75323	-1006.03157	1499.49875	916.91498	-845.53879	1611.48209	788.07663	-941.62277	1616.10321	954.46991	-799.10843	1379.44046	1005.39742	-696.90170	1146.03500	917.27654	-740.49629	1085.87036	926.12000	-746.31691	1143.22594	858.33084	-619.78973	1034.44046	682.37556	-587.48188	1062.41653	686.47331	-606.00319	1100.31509	671.00716	-1144.64828	1393.28674	768.17825	-1146.90392	1074.48387	804.83559	-1180.69191	1104.89342	721.08444	-1218.73024	1076.45828	789.26773	-1180.99998	876.12801	683.34923	-1157.96432	894.52141	652.15385	-1118.12767	889.74129	674.72305	-881.13998	872.00325	1060.78903	-903.95508	398.24089	957.18330	-925.80299	429.02241	1039.77676	-999.38400	423.68248	948.34106	-1005.69786	415.91557	694.77646	-1085.76401	433.11836	706.20743	-1014.34395	406.51447	802.92252	-971.92642	144.71931	990.90424	-1052.94479	150.32094	988.66577	-1016.70212	142.00191	1052.09007	-1067.71568	169.23265	636.08116	-1050.00412	146.12066	695.63187	-991.75339	172.55283	658.52951	-1020.89439	1615.69855	854.26971	-1142.21634	889.54628	557.97466	-79.95613	1063.51669	161.28939	55.59659	1081.88675	363.12817	-269.88058	1475.66711	317.21451	-165.80067	1560.97168	282.33389	-352.58072	1701.63864	211.83655	-183.86217	1666.41449	239.92710	-284.90900	1683.02719	361.98208	-315.66568	1414.86420	146.75737	-418.54195	1146.49033	264.23880	-346.51665	1136.87149	308.13116	-422.94064	1195.42870	319.09931	-526.55201	1054.62074	494.08852	-551.51714	1100.45616	499.12582	-522.58099	1125.58311	524.68639	-52.19635	1516.42990	478.90450	102.23577	1217.29210	487.92702	37.30271	1275.92018	449.62513	54.92982	1257.72034	561.34563	-165.05432	1199.38377	519.29596	-171.45153	1249.70200	535.84969	-163.65849	1268.10402	492.23034	-214.71786	892.81044	151.80399	0.02031	905.55939	506.53805	-253.88697	460.67959	245.07605	-158.69802	488.11939	178.35993	-145.74217	461.16081	290.70972	-87.80876	437.99828	493.96183	-23.76260	463.57475	408.70651	2.89191	487.64229	525.11383	-229.35757	158.83364	229.28898	-164.53480	156.47708	262.69196	-180.46436	150.44232	186.48270	52.33429	147.27460	515.06508	106.49558	161.36234	441.57383	33.68612	147.88866	447.69951	-113.49473	1015.51743	487.95399	-262.50591	992.35580	317.45541 
102	12.183	-1008.55881	965.89546	783.45497	-853.07961	976.91833	966.60149	-1023.97903	1029.76723	1066.19370	-1149.13635	1022.61421	916.55121	-935.64201	1444.75220	840.03281	-1006.06064	1501.45416	925.45631	-846.84631	1613.81546	795.77553	-941.33461	1618.31955	963.19756	-798.61382	1381.71585	1012.55234	-696.24275	1148.52661	924.57626	-739.38393	1088.14423	933.35602	-745.83885	1145.79575	865.61867	-617.75757	1039.24377	689.61380	-585.02991	1068.43086	694.93591	-605.63652	1105.40291	677.58308	-1145.85518	1395.17090	777.07375	-1146.65604	1076.16455	816.49986	-1180.91660	1105.36888	732.15019	-1218.41476	1078.22319	801.03836	-1184.02985	875.98869	698.23677	-1160.43457	893.38760	666.86836	-1120.91782	888.26843	690.03700	-879.83139	872.38029	1064.31961	-907.05521	399.23660	960.03006	-928.52257	429.71996	1042.81113	-1002.48436	424.82262	951.42197	-1008.74245	417.56802	700.80658	-1088.56857	434.42539	713.98933	-1014.87732	409.05533	809.18510	-972.70798	145.29843	991.91238	-1053.76427	150.32811	989.54681	-1017.53708	141.76332	1053.20877	-1071.41411	170.63471	644.66583	-1052.28409	148.11013	703.71483	-994.70657	174.48496	665.01350	-1021.57127	1618.15308	863.90404	-1142.21634	889.54628	557.97466	-75.73399	1063.33893	164.53596	57.84355	1080.34210	367.85675	-264.50785	1476.17966	319.81426	-158.71545	1561.31622	287.84279	-344.47353	1702.15286	213.75481	-176.34119	1667.75879	247.19248	-281.62338	1682.65381	366.08002	-307.68383	1419.11697	149.24092	-415.66223	1152.92900	266.25860	-344.99630	1141.05522	306.22463	-418.06255	1201.42914	321.60881	-525.92613	1062.16324	495.58449	-548.20347	1108.94615	502.26852	-517.63042	1131.59286	528.10131	-49.29550	1514.86130	485.34279	105.31206	1215.73418	494.41784	40.14768	1274.11507	455.68256	57.54345	1255.66818	566.96968	-162.40059	1198.17406	523.37875	-168.72198	1248.23952	539.98295	-161.15688	1267.39662	496.71753	-211.61583	893.31749	153.01997	-0.28906	903.79974	509.81457	-252.96747	460.84145	245.02914	-157.47722	488.15304	178.83181	-145.16249	460.86048	291.23648	-86.30106	436.42559	493.99673	-20.57035	462.81151	410.37254	3.53539	486.50642	527.46204	-229.15516	158.89482	228.62593	-164.61369	156.16543	262.21111	-180.18820	150.53623	186.03317	54.52770	146.38406	517.13081	110.39675	160.98904	444.96624	37.50081	147.31006	449.25449	-113.12745	1014.42802	490.40554	-260.30895	992.36427	318.47628 
103	12.200	-1009.54521	968.75877	788.10173	-851.61171	977.51656	969.42108	-1021.41144	1030.60646	1071.13342	-1148.46077	1024.79828	923.19550	-936.77780	1447.21268	847.55730	-1006.08604	1503.41064	933.54439	-848.64334	1616.02142	802.76703	-940.78705	1620.62637	971.33987	-798.08220	1383.92899	1019.31770	-695.21912	1151.08086	931.83952	-736.59096	1090.83511	943.29063	-744.76143	1148.35396	872.96616	-616.29063	1043.65211	697.07817	-583.18623	1073.68759	703.30177	-605.00763	1109.69437	684.31511	-1147.22847	1396.99905	785.86334	-1146.40877	1077.95822	827.32903	-1181.08551	1106.05164	742.78152	-1218.08983	1080.01488	812.45628	-1187.15462	876.14052	712.32773	-1162.86797	892.57713	680.96672	-1123.70590	887.06856	704.55635	-878.83766	872.77122	1067.42744	-910.37987	400.38769	963.01102	-931.61797	430.68794	1046.00273	-1005.66162	425.95432	954.50035	-1011.34323	419.00982	706.66504	-1091.19324	435.97458	721.47377	-1015.61691	411.64005	815.54520	-973.48152	145.93412	992.76741	-1054.70093	150.44153	990.54901	-1019.04907	142.40010	1054.62677	-1074.45427	171.60019	653.85101	-1054.27078	149.34519	712.76657	-997.57172	175.48656	673.18115	-1022.62321	1620.69946	872.61185	-1142.21634	889.54628	557.97466	-71.12279	1063.21068	168.13591	60.02027	1078.97026	373.27236	-258.83850	1476.48819	322.82551	-151.33359	1561.45645	293.76308	-335.77473	1703.20221	216.56649	-168.70518	1668.95538	254.89225	-277.38770	1682.39594	370.02106	-299.17099	1423.31543	151.85835	-412.41508	1158.77808	266.81606	-341.58981	1144.65706	305.07935	-412.66167	1206.50948	323.33611	-524.21848	1069.10347	496.17352	-544.06021	1116.55823	504.24431	-511.60915	1136.64566	530.63736	-45.85052	1512.82776	492.46708	108.37002	1213.99689	501.56898	42.80421	1272.07382	462.28264	59.79858	1253.32306	573.01857	-159.73282	1196.58218	527.09949	-165.99047	1246.58615	544.31797	-157.78875	1265.94322	501.11336	-207.76436	893.72391	154.42493	-0.25739	902.06696	513.77151	-252.12910	461.10085	245.03822	-156.09472	488.13755	179.65010	-143.75598	460.82878	291.27935	-84.77618	435.03269	494.21421	-17.32086	462.02103	412.44114	4.20721	485.22179	530.15514	-228.97604	158.87874	227.78822	-164.53104	156.03827	261.41699	-179.64615	150.70959	185.38717	57.05297	145.50380	519.29268	114.54527	160.63049	448.56228	41.61377	146.65716	451.06976	-112.54331	1013.46039	493.49449	-257.97041	992.23801	319.19077 
104	12.217	-1010.57182	971.87920	791.92642	-850.66833	978.16711	971.60660	-1018.78242	1031.49277	1075.66444	-1147.80075	1027.10060	929.63699	-937.77931	1449.73358	854.55261	-1006.06796	1505.26031	941.22818	-850.90492	1618.27820	808.77312	-940.44006	1622.82150	978.97308	-797.21176	1386.31958	1026.15524	-693.70018	1153.48167	939.55673	-734.11484	1093.24074	952.06612	-743.42911	1150.19577	880.59288	-615.08068	1046.82861	704.42146	-582.79350	1076.87965	709.34006	-605.21629	1113.05481	691.50116	-1148.76320	1398.77457	794.46106	-1146.11168	1079.82285	838.22342	-1180.95863	1106.86050	752.83401	-1217.60513	1081.73538	823.53195	-1190.20218	876.50574	725.90805	-1165.39902	891.97914	694.35066	-1126.64711	886.09749	718.50540	-877.88345	873.20442	1069.69666	-913.63022	401.44768	965.60867	-934.45572	431.27945	1048.93265	-1008.93944	427.06299	958.00987	-1013.22563	419.93538	712.68295	-1093.18375	437.46334	728.07396	-1016.62712	414.19189	821.88141	-974.26971	146.48608	993.89175	-1055.59792	150.55676	991.79771	-1018.66280	141.17391	1054.70642	-1077.20253	172.61673	663.22151	-1057.06589	150.91685	722.18033	-1000.19997	176.11547	682.36740	-1024.35669	1622.85797	879.80125	-1142.21634	889.54628	557.97466	-66.04267	1063.10837	172.00212	62.71326	1077.79076	378.97316	-252.79491	1476.79886	326.45081	-143.57752	1561.59882	300.29755	-326.56681	1704.35471	220.50739	-160.74509	1670.09598	263.15922	-272.67263	1682.31018	375.17696	-290.25888	1427.27386	154.82277	-408.01048	1163.89053	267.57813	-337.40871	1147.72842	305.38177	-407.08103	1210.75706	324.53804	-521.68030	1074.79492	496.02257	-539.47113	1122.93297	504.90738	-505.97519	1141.30089	531.21674	-43.29085	1510.77393	500.21328	111.55801	1211.91673	509.10648	45.56503	1269.62547	469.24145	62.13222	1250.50636	579.39888	-157.20438	1194.57420	531.09791	-163.46823	1244.28421	548.84888	-155.10768	1264.29344	506.05011	-203.36256	894.09607	155.97760	-0.08940	900.27939	517.77924	-250.91621	461.26488	245.10015	-154.30344	488.16883	180.51008	-141.99620	460.88207	291.18658	-82.97533	433.64113	495.04196	-14.05372	461.23421	414.84032	5.07291	484.15352	533.10150	-228.70319	158.93895	226.94431	-164.49373	155.89740	260.34634	-179.16546	150.86642	184.82273	59.79396	144.70845	521.88515	118.60692	160.25166	452.42546	45.78206	146.02078	453.24100	-111.72983	1012.24869	496.70437	-254.40256	991.60538	322.00565 
